<svg viewBox="0 0 1441 400" xmlns="http://www.w3.org/2000/svg"><g><g><g><g><g><line x1="51.53200149536133" y1="376.8999996185303" x2="46.53200149536133" y2="376.8999996185303" style="visibility: inherit;" fill="rgb(0, 0, 0)" stroke="rgb(204, 204, 204)" stroke-width="1px"></line><line x1="51.53200149536133" y1="347.9076919555664" x2="46.53200149536133" y2="347.9076919555664" style="visibility: inherit;" fill="rgb(0, 0, 0)" stroke="rgb(204, 204, 204)" stroke-width="1px"></line><line x1="51.53200149536133" y1="318.91538429260254" x2="46.53200149536133" y2="318.91538429260254" style="visibility: inherit;" fill="rgb(0, 0, 0)" stroke="rgb(204, 204, 204)" stroke-width="1px"></line><line x1="51.53200149536133" y1="289.9230766296387" x2="46.53200149536133" y2="289.9230766296387" style="visibility: inherit;" fill="rgb(0, 0, 0)" stroke="rgb(204, 204, 204)" stroke-width="1px"></line><line x1="51.53200149536133" y1="260.9307689666748" x2="46.53200149536133" y2="260.9307689666748" style="visibility: inherit;" fill="rgb(0, 0, 0)" stroke="rgb(204, 204, 204)" stroke-width="1px"></line><line x1="51.53200149536133" y1="231.93846130371094" x2="46.53200149536133" y2="231.93846130371094" style="visibility: inherit;" fill="rgb(0, 0, 0)" stroke="rgb(204, 204, 204)" stroke-width="1px"></line><line x1="51.53200149536133" y1="202.9461536407471" x2="46.53200149536133" y2="202.9461536407471" style="visibility: inherit;" fill="rgb(0, 0, 0)" stroke="rgb(204, 204, 204)" stroke-width="1px"></line><line x1="51.53200149536133" y1="173.95384597778317" x2="46.53200149536133" y2="173.95384597778317" style="visibility: inherit;" fill="rgb(0, 0, 0)" stroke="rgb(204, 204, 204)" stroke-width="1px"></line><line x1="51.53200149536133" y1="144.96153831481934" x2="46.53200149536133" y2="144.96153831481934" style="visibility: inherit;" fill="rgb(0, 0, 0)" stroke="rgb(204, 204, 204)" stroke-width="1px"></line><line x1="51.53200149536133" y1="115.96923065185547" x2="46.53200149536133" y2="115.96923065185547" style="visibility: inherit;" fill="rgb(0, 0, 0)" stroke="rgb(204, 204, 204)" stroke-width="1px"></line><line x1="51.53200149536133" y1="86.97692298889159" x2="46.53200149536133" y2="86.97692298889159" style="visibility: inherit;" fill="rgb(0, 0, 0)" stroke="rgb(204, 204, 204)" stroke-width="1px"></line><line x1="51.53200149536133" y1="57.984615325927734" x2="46.53200149536133" y2="57.984615325927734" style="visibility: inherit;" fill="rgb(0, 0, 0)" stroke="rgb(204, 204, 204)" stroke-width="1px"></line><line x1="51.53200149536133" y1="28.99230766296389" x2="46.53200149536133" y2="28.99230766296389" style="visibility: inherit;" fill="rgb(0, 0, 0)" stroke="rgb(204, 204, 204)" stroke-width="1px"></line><line x1="51.53200149536133" y1="0" x2="46.53200149536133" y2="0" style="visibility: inherit;" fill="rgb(0, 0, 0)" stroke="rgb(204, 204, 204)" stroke-width="1px"></line></g><g transform="translate(41.53200149536133, 0)"><text style="text-anchor: end; visibility: hidden; font-family: Roboto, sans-serif; font-size: 12px; font-weight: 200;" x="0" y="376.8999996185303" dx="0em" dy="0.3em" fill="rgb(33, 33, 33)" stroke="none" stroke-width="1px">0</text><text style="text-anchor: end; visibility: inherit; font-family: Roboto, sans-serif; font-size: 12px; font-weight: 200;" x="0" y="347.9076919555664" dx="0em" dy="0.3em" fill="rgb(33, 33, 33)" stroke="none" stroke-width="1px">0.01</text><text style="text-anchor: end; visibility: inherit; font-family: Roboto, sans-serif; font-size: 12px; font-weight: 200;" x="0" y="318.91538429260254" dx="0em" dy="0.3em" fill="rgb(33, 33, 33)" stroke="none" stroke-width="1px">0.02</text><text style="text-anchor: end; visibility: inherit; font-family: Roboto, sans-serif; font-size: 12px; font-weight: 200;" x="0" y="289.9230766296387" dx="0em" dy="0.3em" fill="rgb(33, 33, 33)" stroke="none" stroke-width="1px">0.03</text><text style="text-anchor: end; visibility: inherit; font-family: Roboto, sans-serif; font-size: 12px; font-weight: 200;" x="0" y="260.9307689666748" dx="0em" dy="0.3em" fill="rgb(33, 33, 33)" stroke="none" stroke-width="1px">0.04</text><text style="text-anchor: end; visibility: inherit; font-family: Roboto, sans-serif; font-size: 12px; font-weight: 200;" x="0" y="231.93846130371094" dx="0em" dy="0.3em" fill="rgb(33, 33, 33)" stroke="none" stroke-width="1px">0.05</text><text style="text-anchor: end; visibility: inherit; font-family: Roboto, sans-serif; font-size: 12px; font-weight: 200;" x="0" y="202.9461536407471" dx="0em" dy="0.3em" fill="rgb(33, 33, 33)" stroke="none" stroke-width="1px">0.06</text><text style="text-anchor: end; visibility: inherit; font-family: Roboto, sans-serif; font-size: 12px; font-weight: 200;" x="0" y="173.95384597778317" dx="0em" dy="0.3em" fill="rgb(33, 33, 33)" stroke="none" stroke-width="1px">0.07</text><text style="text-anchor: end; visibility: inherit; font-family: Roboto, sans-serif; font-size: 12px; font-weight: 200;" x="0" y="144.96153831481934" dx="0em" dy="0.3em" fill="rgb(33, 33, 33)" stroke="none" stroke-width="1px">0.08</text><text style="text-anchor: end; visibility: inherit; font-family: Roboto, sans-serif; font-size: 12px; font-weight: 200;" x="0" y="115.96923065185547" dx="0em" dy="0.3em" fill="rgb(33, 33, 33)" stroke="none" stroke-width="1px">0.09</text><text style="text-anchor: end; visibility: inherit; font-family: Roboto, sans-serif; font-size: 12px; font-weight: 200;" x="0" y="86.97692298889159" dx="0em" dy="0.3em" fill="rgb(33, 33, 33)" stroke="none" stroke-width="1px">0.1</text><text style="text-anchor: end; visibility: inherit; font-family: Roboto, sans-serif; font-size: 12px; font-weight: 200;" x="0" y="57.984615325927734" dx="0em" dy="0.3em" fill="rgb(33, 33, 33)" stroke="none" stroke-width="1px">0.11</text><text style="text-anchor: end; visibility: inherit; font-family: Roboto, sans-serif; font-size: 12px; font-weight: 200;" x="0" y="28.99230766296389" dx="0em" dy="0.3em" fill="rgb(33, 33, 33)" stroke="none" stroke-width="1px">0.12</text><text style="text-anchor: end; visibility: hidden; font-family: Roboto, sans-serif; font-size: 12px; font-weight: 200;" x="0" y="0" dx="0em" dy="0.3em" fill="rgb(33, 33, 33)" stroke="none" stroke-width="1px">0.13</text></g><line x1="51.53200149536133" y1="0" x2="51.53200149536133" y2="376.8999996185303" fill="rgb(0, 0, 0)" stroke="rgb(204, 204, 204)" stroke-width="1px"></line></g></g><g transform="translate(51, 0)" clip-path="url(#clip_0)"><clipPath id="clip_0"><rect width="1389" height="376"></rect></clipPath><g><g><g><line x1="0.5508888831657829" y1="0" x2="0.5508888831657829" y2="376.8999996185303" fill="rgb(0, 0, 0)" stroke="rgb(66, 66, 66)" stroke-width="1px" opacity="0.25"></line><line x1="185.1583295419436" y1="0" x2="185.1583295419436" y2="376.8999996185303" fill="rgb(0, 0, 0)" stroke="rgb(66, 66, 66)" stroke-width="1px" opacity="0.25"></line><line x1="369.7657702007215" y1="0" x2="369.7657702007215" y2="376.8999996185303" fill="rgb(0, 0, 0)" stroke="rgb(66, 66, 66)" stroke-width="1px" opacity="0.25"></line><line x1="554.3732108594993" y1="0" x2="554.3732108594993" y2="376.8999996185303" fill="rgb(0, 0, 0)" stroke="rgb(66, 66, 66)" stroke-width="1px" opacity="0.25"></line><line x1="738.980651518277" y1="0" x2="738.980651518277" y2="376.8999996185303" fill="rgb(0, 0, 0)" stroke="rgb(66, 66, 66)" stroke-width="1px" opacity="0.25"></line><line x1="923.5880921770549" y1="0" x2="923.5880921770549" y2="376.8999996185303" fill="rgb(0, 0, 0)" stroke="rgb(66, 66, 66)" stroke-width="1px" opacity="0.25"></line><line x1="1108.1955328358326" y1="0" x2="1108.1955328358326" y2="376.8999996185303" fill="rgb(0, 0, 0)" stroke="rgb(66, 66, 66)" stroke-width="1px" opacity="0.25"></line><line x1="1292.8029734946106" y1="0" x2="1292.8029734946106" y2="376.8999996185303" fill="rgb(0, 0, 0)" stroke="rgb(66, 66, 66)" stroke-width="1px" opacity="0.25"></line></g><g><line x1="0" y1="376.8999996185303" x2="1389.4679985046387" y2="376.8999996185303" fill="rgb(0, 0, 0)" stroke="rgb(66, 66, 66)" stroke-width="1px" opacity="0.25"></line><line x1="0" y1="347.9076919555664" x2="1389.4679985046387" y2="347.9076919555664" fill="rgb(0, 0, 0)" stroke="rgb(66, 66, 66)" stroke-width="1px" opacity="0.25"></line><line x1="0" y1="318.91538429260254" x2="1389.4679985046387" y2="318.91538429260254" fill="rgb(0, 0, 0)" stroke="rgb(66, 66, 66)" stroke-width="1px" opacity="0.25"></line><line x1="0" y1="289.9230766296387" x2="1389.4679985046387" y2="289.9230766296387" fill="rgb(0, 0, 0)" stroke="rgb(66, 66, 66)" stroke-width="1px" opacity="0.25"></line><line x1="0" y1="260.9307689666748" x2="1389.4679985046387" y2="260.9307689666748" fill="rgb(0, 0, 0)" stroke="rgb(66, 66, 66)" stroke-width="1px" opacity="0.25"></line><line x1="0" y1="231.93846130371094" x2="1389.4679985046387" y2="231.93846130371094" fill="rgb(0, 0, 0)" stroke="rgb(66, 66, 66)" stroke-width="1px" opacity="0.25"></line><line x1="0" y1="202.9461536407471" x2="1389.4679985046387" y2="202.9461536407471" fill="rgb(0, 0, 0)" stroke="rgb(66, 66, 66)" stroke-width="1px" opacity="0.25"></line><line x1="0" y1="173.95384597778317" x2="1389.4679985046387" y2="173.95384597778317" fill="rgb(0, 0, 0)" stroke="rgb(66, 66, 66)" stroke-width="1px" opacity="0.25"></line><line x1="0" y1="144.96153831481934" x2="1389.4679985046387" y2="144.96153831481934" fill="rgb(0, 0, 0)" stroke="rgb(66, 66, 66)" stroke-width="1px" opacity="0.25"></line><line x1="0" y1="115.96923065185547" x2="1389.4679985046387" y2="115.96923065185547" fill="rgb(0, 0, 0)" stroke="rgb(66, 66, 66)" stroke-width="1px" opacity="0.25"></line><line x1="0" y1="86.97692298889159" x2="1389.4679985046387" y2="86.97692298889159" fill="rgb(0, 0, 0)" stroke="rgb(66, 66, 66)" stroke-width="1px" opacity="0.25"></line><line x1="0" y1="57.984615325927734" x2="1389.4679985046387" y2="57.984615325927734" fill="rgb(0, 0, 0)" stroke="rgb(66, 66, 66)" stroke-width="1px" opacity="0.25"></line><line x1="0" y1="28.99230766296389" x2="1389.4679985046387" y2="28.99230766296389" fill="rgb(0, 0, 0)" stroke="rgb(66, 66, 66)" stroke-width="1px" opacity="0.25"></line><line x1="0" y1="0" x2="1389.4679985046387" y2="0" fill="rgb(0, 0, 0)" stroke="rgb(66, 66, 66)" stroke-width="1px" opacity="0.25"></line></g></g></g><g><g><line x1="0" y1="376.8999996185303" x2="1389.4679985046387" y2="376.8999996185303" fill="rgb(0, 0, 0)" stroke="rgb(153, 153, 153)" stroke-width="1.5px"></line></g></g><g><g><line x1="0.5508888831657829" y1="0" x2="0.5508888831657829" y2="376.8999996185303" fill="rgb(0, 0, 0)" stroke="rgb(153, 153, 153)" stroke-width="1.5px"></line></g></g><g><g><g><g><g><path style="fill: none;" stroke="rgb(238, 51, 119)" stroke-width="2px" d="M0.5508888831657829,168.30318714814632L4.243037696341339,278.32183341715637L7.935186509516895,308.225810450522L11.627335322692453,276.8828523642257L15.31948413586801,269.6584065475975L19.011632949043566,27.044458062945164L22.70378176221912,108.73313655265356L26.39593057539468,185.06856662470187L30.088079388570236,117.89562835156573L33.78022820174579,205.21782655023412L37.472377014921356,220.13579092564925L41.164525828096906,195.4409671140454L44.85667464127246,258.9182029901572L48.54882345444802,261.91444179297L52.240972267623576,150.01934524388403L55.93312108079914,187.24183581069394L59.62526989397468,181.6576783424401L63.317418707150246,239.07970399492046L67.0095675203258,216.40832927659977L70.70171633350137,280.1049586486774L74.39386514667692,204.17903222543546L78.08601395985247,233.0372951371472L81.77816277302803,272.84543098260195L85.47031158620358,252.71893948385693L89.16246039937914,273.1717786864283L92.85460921255469,312.5604142347064L96.54675802573026,241.5619089472673L100.2389068389058,271.60653291033935L103.93105565208135,278.0136377104094L107.62320446525692,197.09653335191808L111.31535327843247,252.80509906380195L115.00750209160805,302.35672336156017L118.6996509047836,317.65573093072777L122.39179971795916,279.19004341071417L126.08394853113471,155.07860302294225L129.77609734431024,145.15538687168726L133.46824615748582,204.64126025761826L137.16039497066137,197.85692796421483L140.85254378383695,264.7763864869876L144.5446925970125,279.74581956134546L148.23684141018805,309.22895422153283L151.9289902233636,301.29044970727375L155.62113903653915,289.5540367912389L159.31328784971473,297.9679751289025L163.00543666289028,324.56411556142706L166.69758547606583,323.86864701784515L170.3897342892414,341.65104698681375L174.08188310241695,340.6254952971886L177.7740319155925,320.55021503726965L181.46618072876805,333.3516256508609L185.1583295419436,256.53645708921687L188.85047835511915,253.85611598060717L192.54262716829473,272.36793274724175L196.23477598147028,243.25198421344186L199.92692479464583,132.48716684186235L203.61907360782138,223.79817889828362L207.31122242099693,282.6988727626457L211.00337123417253,179.9145677956645L214.69552004734808,241.69985135834236L218.38766886052363,274.78140657399155L222.07981767369918,234.36072075628235" fill="none"></path></g></g></g></g><g opacity="0.2"><g><g><g><path style="fill: none;" stroke="rgb(238, 51, 119)" stroke-width="2px" d="M0.5508888831657829,168.30318714814632L4.243037696341339,344.3330211785624L7.935186509516895,336.933628402553L11.627335322692453,240.0235336547413L15.31948413586801,260.2261700894078L19.011632949043566,-308.57797371278343L22.70378176221912,225.54925381179225L26.39593057539468,296.36635648987686L30.088079388570236,18.828592070220186L33.78022820174579,334.8811139969899L37.472377014921356,242.3774326498491L41.164525828096906,158.53311953729897L44.85667464127246,353.9267926156351L48.54882345444802,266.40293005345893L52.240972267623576,-17.69177109413227L55.93312108079914,243.0493194766792L59.62526989397468,173.28380516835318L63.317418707150246,325.1981630275483L67.0095675203258,182.40472095486976L70.70171633350137,375.64408058256686L74.39386514667692,90.29430654882329L78.08601395985247,276.3237399112813L81.77816277302803,332.55684880858394L85.47031158620358,222.5294406532188L89.16246039937914,303.850892120258L92.85460921255469,371.64319958258545L96.54675802573026,135.0643326818246L100.2389068389058,316.67342272937253L103.93105565208135,287.62428900866536L107.62320446525692,75.72092153583466L111.31535327843247,336.3679291580612L115.00750209160805,376.6841499490829L118.6996509047836,340.60424045808486L122.39179971795916,221.49151488591224L126.08394853113471,-31.088552224806897L129.77609734431024,130.27056290068538L133.46824615748582,293.8700694161709L137.16039497066137,187.68042958708858L140.85254378383695,365.15557389841945L144.5446925970125,302.1999691228564L148.23684141018805,353.4536561526965L151.9289902233636,289.3826929454358L155.62113903653915,271.9494174256584L159.31328784971473,310.5888826317538L163.00543666289028,364.4583262033026L166.69758547606583,322.8254442025807L170.3897342892414,368.32464693860305L174.08188310241695,339.08716776280846L177.7740319155925,290.4372946480673L181.46618072876805,352.5537415709892L185.1583295419436,141.31370424768218L188.85047835511915,249.83560431771207L192.54262716829473,300.1356578971129L196.23477598147028,199.5780614128182L199.92692479464583,-33.66005921533292L203.61907360782138,360.76469698282943L207.31122242099693,371.0499135591555L211.00337123417253,25.738110345227703L214.69552004734808,334.3777767023465L218.38766886052363,324.4037393974614L222.07981767369918,173.72969202972138" fill="none"></path></g></g></g></g></g></g><g transform="translate(51, 376)" clip-path="url(#clip_1)"><clipPath id="clip_1"><rect width="1389" height="23"></rect></clipPath><g><g><line x1="0.5508888831657829" y1="0" x2="0.5508888831657829" y2="5" style="visibility: inherit;" fill="rgb(0, 0, 0)" stroke="rgb(204, 204, 204)" stroke-width="1px"></line><line x1="185.1583295419436" y1="0" x2="185.1583295419436" y2="5" style="visibility: inherit;" fill="rgb(0, 0, 0)" stroke="rgb(204, 204, 204)" stroke-width="1px"></line><line x1="369.7657702007215" y1="0" x2="369.7657702007215" y2="5" style="visibility: inherit;" fill="rgb(0, 0, 0)" stroke="rgb(204, 204, 204)" stroke-width="1px"></line><line x1="554.3732108594993" y1="0" x2="554.3732108594993" y2="5" style="visibility: inherit;" fill="rgb(0, 0, 0)" stroke="rgb(204, 204, 204)" stroke-width="1px"></line><line x1="738.980651518277" y1="0" x2="738.980651518277" y2="5" style="visibility: inherit;" fill="rgb(0, 0, 0)" stroke="rgb(204, 204, 204)" stroke-width="1px"></line><line x1="923.5880921770549" y1="0" x2="923.5880921770549" y2="5" style="visibility: inherit;" fill="rgb(0, 0, 0)" stroke="rgb(204, 204, 204)" stroke-width="1px"></line><line x1="1108.1955328358326" y1="0" x2="1108.1955328358326" y2="5" style="visibility: inherit;" fill="rgb(0, 0, 0)" stroke="rgb(204, 204, 204)" stroke-width="1px"></line><line x1="1292.8029734946106" y1="0" x2="1292.8029734946106" y2="5" style="visibility: inherit;" fill="rgb(0, 0, 0)" stroke="rgb(204, 204, 204)" stroke-width="1px"></line></g><g transform="translate(0, 8)"><text style="text-anchor: middle; visibility: hidden; font-family: Roboto, sans-serif; font-size: 12px; font-weight: 200;" x="0.5508888831657829" y="0" dx="0em" dy="0.95em" fill="rgb(33, 33, 33)" stroke="none" stroke-width="1px">0</text><text style="text-anchor: middle; visibility: inherit; font-family: Roboto, sans-serif; font-size: 12px; font-weight: 200;" x="185.1583295419436" y="0" dx="0em" dy="0.95em" fill="rgb(33, 33, 33)" stroke="none" stroke-width="1px">50</text><text style="text-anchor: middle; visibility: inherit; font-family: Roboto, sans-serif; font-size: 12px; font-weight: 200;" x="369.7657702007215" y="0" dx="0em" dy="0.95em" fill="rgb(33, 33, 33)" stroke="none" stroke-width="1px">100</text><text style="text-anchor: middle; visibility: inherit; font-family: Roboto, sans-serif; font-size: 12px; font-weight: 200;" x="554.3732108594993" y="0" dx="0em" dy="0.95em" fill="rgb(33, 33, 33)" stroke="none" stroke-width="1px">150</text><text style="text-anchor: middle; visibility: inherit; font-family: Roboto, sans-serif; font-size: 12px; font-weight: 200;" x="738.980651518277" y="0" dx="0em" dy="0.95em" fill="rgb(33, 33, 33)" stroke="none" stroke-width="1px">200</text><text style="text-anchor: middle; visibility: inherit; font-family: Roboto, sans-serif; font-size: 12px; font-weight: 200;" x="923.5880921770549" y="0" dx="0em" dy="0.95em" fill="rgb(33, 33, 33)" stroke="none" stroke-width="1px">250</text><text style="text-anchor: middle; visibility: inherit; font-family: Roboto, sans-serif; font-size: 12px; font-weight: 200;" x="1108.1955328358326" y="0" dx="0em" dy="0.95em" fill="rgb(33, 33, 33)" stroke="none" stroke-width="1px">300</text><text style="text-anchor: middle; visibility: inherit; font-family: Roboto, sans-serif; font-size: 12px; font-weight: 200;" x="1292.8029734946106" y="0" dx="0em" dy="0.95em" fill="rgb(33, 33, 33)" stroke="none" stroke-width="1px">350</text></g><line x1="0" y1="0" x2="1389.4679985046387" y2="0" fill="rgb(0, 0, 0)" stroke="rgb(204, 204, 204)" stroke-width="1px"></line></g></g></g></g></svg>